<svg width="144" height="145" viewBox="0 0 144 145" fill="none" xmlns="http://www.w3.org/2000/svg">
<path d="M72 64.0757C74.2343 64.0757 76.377 64.9633 77.9569 66.5431C79.5367 68.123 80.4243 70.2657 80.4243 72.5C80.4243 74.7343 79.5367 76.877 77.9569 78.4569C76.377 80.0367 74.2343 80.9243 72 80.9243C69.7657 80.9243 67.623 80.0367 66.0431 78.4569C64.4633 76.877 63.5757 74.7343 63.5757 72.5C63.5757 70.2657 64.4633 68.123 66.0431 66.5431C67.623 64.9633 69.7657 64.0757 72 64.0757ZM6.45916 6.95916C18.5059 -5.08755 44.6211 0.303989 72 18.2477C99.3789 0.303989 125.494 -5.08755 137.541 6.95916C149.588 19.0059 144.196 45.1211 126.252 72.5C144.196 99.8789 149.588 125.994 137.541 138.041C125.494 150.088 99.3789 144.696 72 126.752C44.6211 144.696 18.5059 150.088 6.45916 138.041C-5.58755 125.994 -0.196011 99.8789 17.7477 72.5C-0.196011 45.1211 -5.58755 19.0059 6.45916 6.95916ZM101.822 42.6781C106.961 47.9011 111.678 53.2084 116.059 58.5157C127.684 40.572 131.897 25.1556 125.578 18.9216C119.344 12.6034 103.928 16.8156 85.9843 28.4411C91.2916 32.8217 96.5989 37.5393 101.822 42.6781ZM42.1781 102.322C37.0393 97.0989 32.3217 91.7916 27.9411 86.4843C16.3156 104.428 12.1034 119.844 18.4216 126.078C24.6556 132.397 40.072 128.184 58.0157 116.559C52.7084 112.178 47.4011 107.461 42.1781 102.322ZM18.4216 18.9216C12.1034 25.1556 16.3156 40.572 27.9411 58.5157C32.3217 53.2084 37.0393 47.9011 42.1781 42.6781C47.4011 37.5393 52.7084 32.8217 58.0157 28.4411C40.072 16.8156 24.6556 12.6034 18.4216 18.9216ZM54.1405 90.3595C60.0375 96.2564 66.103 101.648 72 106.45C77.897 101.648 83.9625 96.2564 89.8595 90.3595C95.7564 84.4625 101.148 78.397 105.95 72.5C101.148 66.603 95.7564 60.5375 89.8595 54.6405C83.9625 48.7436 77.897 43.352 72 38.5502C66.103 43.352 60.0375 48.7436 54.1405 54.6405C48.2436 60.5375 42.852 66.603 38.0502 72.5C42.852 78.397 48.2436 84.4625 54.1405 90.3595ZM125.578 126.078C131.897 119.844 127.684 104.428 116.059 86.4843C111.678 91.7916 106.961 97.0989 101.822 102.322C96.5989 107.461 91.2916 112.178 85.9843 116.559C103.928 128.184 119.344 132.397 125.578 126.078Z" fill="#708C70" fill-opacity="1"/>
</svg>
