<svg width="179" height="148" viewBox="0 0 179 148" fill="none" xmlns="http://www.w3.org/2000/svg">
<path d="M125.3 127.9V147.5H0V127.9C0 127.9 0 88.7002 62.65 88.7002C125.3 88.7002 125.3 127.9 125.3 127.9ZM93.975 34.8004C93.975 28.0165 92.1378 21.385 88.6958 15.7444C85.2538 10.1038 80.3615 5.70752 74.6376 3.11144C68.9137 0.515363 62.6152 -0.163889 56.5388 1.15958C50.4623 2.48305 44.8808 5.7498 40.4999 10.5467C36.119 15.3436 33.1356 21.4553 31.9269 28.1088C30.7182 34.7623 31.3386 41.6589 33.7095 47.9264C36.0804 54.1939 40.0954 59.5508 45.2468 63.3197C50.3981 67.0886 56.4545 69.1003 62.65 69.1003C70.9579 69.1003 78.9255 65.4865 84.8001 59.0541C90.6747 52.6216 93.975 43.8973 93.975 34.8004ZM124.763 88.7002C130.265 93.3625 134.767 99.2884 137.952 106.061C141.138 112.833 142.929 120.288 143.2 127.9V147.5H179V127.9C179 127.9 179 92.3262 124.763 88.7002ZM116.35 0.500515C110.19 0.462955 104.165 2.47967 99.0765 6.2825C104.513 14.6001 107.436 24.572 107.436 34.8004C107.436 45.0288 104.513 55.0007 99.0765 63.3183C104.165 67.1211 110.19 69.1378 116.35 69.1003C124.658 69.1003 132.626 65.4865 138.5 59.0541C144.375 52.6216 147.675 43.8973 147.675 34.8004C147.675 25.7035 144.375 16.9792 138.5 10.5467C132.626 4.11424 124.658 0.500515 116.35 0.500515Z" fill="#708C70" fill-opacity="1"/>
</svg>
