<svg width="142" height="143" viewBox="0 0 142 143" fill="none" xmlns="http://www.w3.org/2000/svg">
<path d="M112.89 109.769C111.044 104.089 105.719 99.9 99.4 99.9H92.3V78.6C92.3 76.717 91.552 74.911 90.2205 73.5795C88.889 72.248 87.083 71.5 85.2 71.5H42.6V57.3H56.8C58.683 57.3 60.489 56.552 61.8205 55.2205C63.152 53.8889 63.9 52.083 63.9 50.2V36H78.1C81.8661 36 85.4779 34.5039 88.1409 31.8409C90.8039 29.1779 92.3 25.5661 92.3 21.8V18.889C100.795 22.3138 108.334 27.7461 114.27 34.7208C120.207 41.6956 124.366 50.0051 126.39 58.938C128.413 67.871 128.243 77.1614 125.892 86.0138C123.54 94.8663 119.079 103.017 112.89 109.769ZM63.9 127.803C35.855 124.324 14.2 100.468 14.2 71.5C14.2 67.098 14.768 62.838 15.691 58.791L49.7 92.8V99.9C49.7 103.666 51.1961 107.278 53.8591 109.941C56.5221 112.604 60.1339 114.1 63.9 114.1V127.803ZM71 0.5C61.6761 0.5 52.4436 2.33647 43.8295 5.90455C35.2154 9.47264 27.3884 14.7025 20.7954 21.2954C7.48034 34.6105 0 52.6696 0 71.5C0 90.3304 7.48034 108.389 20.7954 121.705C27.3884 128.298 35.2154 133.527 43.8295 137.095C52.4436 140.664 61.6761 142.5 71 142.5C89.8304 142.5 107.889 135.02 121.205 121.705C134.52 108.389 142 90.3304 142 71.5C142 62.1761 140.164 52.9436 136.595 44.3295C133.027 35.7154 127.798 27.8884 121.205 21.2954C114.612 14.7025 106.785 9.47264 98.1705 5.90455C89.5564 2.33647 80.3239 0.5 71 0.5Z" fill="#708C70" fill-opacity="1"/>
</svg>
