<svg width="46" height="46" viewBox="0 0 46 46" fill="none" xmlns="http://www.w3.org/2000/svg">
<path fill-rule="evenodd" clip-rule="evenodd" d="M13.907 0H0V13.907H13.907V0ZM29.9545 0H16.0475V29.9535H29.9545V0ZM12.407 17.5466H1.5V44.5001H12.407V17.5466ZM1.5 16.0466H0V17.5466V44.5001V46.0001H1.5H12.407H13.907V44.5001V17.5466V16.0466H12.407H1.5ZM33.5938 17.5466H44.5007V44.5001H33.5938V17.5466ZM32.0938 16.0466H33.5938H44.5007H46.0007V17.5466V44.5001V46.0001H44.5007H33.5938H32.0938V44.5001V17.5466V16.0466ZM32.0938 0H46.0007V13.907H32.0938V0ZM17.5475 33.5929H28.4545V44.4999H17.5475V33.5929ZM16.0475 32.0929H17.5475H28.4545H29.9545V33.5929V44.4999V45.9999H28.4545H17.5475H16.0475V44.4999V33.5929V32.0929Z" fill="#494949"/>
</svg>
